[Header]
FileType HTR
DataType HTRS
FileVersion 1
NumSegments 64
NumFrames 4
DataFrameRate 30
EulerRotationOrder ZYX
CalibrationUnits mm
RotationUnits Degrees
GlobalAxisofGravity Y
BoneLengthAxis Y
ScaleFactor 1.0
[SegmentNames&Hierarchy]
Hips	GLOBAL
Spine	Hips
Spine1	Spine
Spine2	Spine1
Neck	Spine2
Head	Neck
LeftEye	Head
RightEye	Head
LeftShoulder	Spine2
LeftArm	LeftShoulder
LeftForeArm	LeftArm
LeftHand	LeftForeArm
LeftHandThumb1	LeftHand
LeftHandThumb2	LeftHandThumb1
LeftHandThumb3	LeftHandThumb2
LeftHandThumb4	LeftHandThumb3
LeftHandIndex1	LeftHand
LeftHandIndex2	LeftHandIndex1
LeftHandIndex3	LeftHandIndex2
LeftHandIndex4	LeftHandIndex3
LeftHandMiddle1	LeftHand
LeftHandMiddle2	LeftHandMiddle1
LeftHandMiddle3	LeftHandMiddle2
LeftHandMiddle4	LeftHandMiddle3
LeftHandRing1	LeftHand
LeftHandRing2	LeftHandRing1
LeftHandRing3	LeftHandRing2
LeftHandRing4	LeftHandRing3
LeftHandPinky1	LeftHand
LeftHandPinky2	LeftHandPinky1
LeftHandPinky3	LeftHandPinky2
LeftHandPinky4	LeftHandPinky3
RightShoulder	Spine2
RightArm	RightShoulder
RightForeArm	RightArm
RightHand	RightForeArm
RightHandPinky1	RightHand
RightHandPinky2	RightHandPinky1
RightHandPinky3	RightHandPinky2
RightHandPinky4	RightHandPinky3
RightHandRing1	RightHand
RightHandRing2	RightHandRing1
RightHandRing3	RightHandRing2
RightHandRing4	RightHandRing3
RightHandMiddle1	RightHand
RightHandMiddle2	RightHandMiddle1
RightHandMiddle3	RightHandMiddle2
RightHandMiddle4	RightHandMiddle3
RightHandIndex1	RightHand
RightHandIndex2	RightHandIndex1
RightHandIndex3	RightHandIndex2
RightHandIndex4	RightHandIndex3
RightHandThumb1	RightHand
RightHandThumb2	RightHandThumb1
RightHandThumb3	RightHandThumb2
RightHandThumb4	RightHandThumb3
LeftUpLeg	Hips
LeftLeg	LeftUpLeg
LeftFoot	LeftLeg
LeftToeBase	LeftFoot
RightUpLeg	Hips
RightLeg	RightUpLeg
RightFoot	RightLeg
RightToeBase	RightFoot
[BasePosition]
Hips	0	0	0	0	0	0	1
Spine	0	0	0	0	0	0	1
Spine1	0	0	0	0	0	0	1
Spine2	0	0	0	0	0	0	1
Neck	0	0	0	0	0	0	1
Head	0	0	0	0	0	0	1
LeftEye	0	0	0	0	0	0	1
RightEye	0	0	0	0	0	0	1
LeftShoulder	0	0	0	0	0	0	1
LeftArm	0	0	0	0	0	0	1
LeftForeArm	0	0	0	0	0	0	1
LeftHand	0	0	0	0	0	0	1
LeftHandThumb1	0	0	0	0	0	0	1
LeftHandThumb2	0	0	0	0	0	0	1
LeftHandThumb3	0	0	0	0	0	0	1
LeftHandThumb4	0	0	0	0	0	0	1
LeftHandIndex1	0	0	0	0	0	0	1
LeftHandIndex2	0	0	0	0	0	0	1
LeftHandIndex3	0	0	0	0	0	0	1
LeftHandIndex4	0	0	0	0	0	0	1
LeftHandMiddle1	0	0	0	0	0	0	1
LeftHandMiddle2	0	0	0	0	0	0	1
LeftHandMiddle3	0	0	0	0	0	0	1
LeftHandMiddle4	0	0	0	0	0	0	1
LeftHandRing1	0	0	0	0	0	0	1
LeftHandRing2	0	0	0	0	0	0	1
LeftHandRing3	0	0	0	0	0	0	1
LeftHandRing4	0	0	0	0	0	0	1
LeftHandPinky1	0	0	0	0	0	0	1
LeftHandPinky2	0	0	0	0	0	0	1
LeftHandPinky3	0	0	0	0	0	0	1
LeftHandPinky4	0	0	0	0	0	0	1
RightShoulder	0	0	0	0	0	0	1
RightArm	0	0	0	0	0	0	1
RightForeArm	0	0	0	0	0	0	1
RightHand	0	0	0	0	0	0	1
RightHandPinky1	0	0	0	0	0	0	1
RightHandPinky2	0	0	0	0	0	0	1
RightHandPinky3	0	0	0	0	0	0	1
RightHandPinky4	0	0	0	0	0	0	1
RightHandRing1	0	0	0	0	0	0	1
RightHandRing2	0	0	0	0	0	0	1
RightHandRing3	0	0	0	0	0	0	1
RightHandRing4	0	0	0	0	0	0	1
RightHandMiddle1	0	0	0	0	0	0	1
RightHandMiddle2	0	0	0	0	0	0	1
RightHandMiddle3	0	0	0	0	0	0	1
RightHandMiddle4	0	0	0	0	0	0	1
RightHandIndex1	0	0	0	0	0	0	1
RightHandIndex2	0	0	0	0	0	0	1
RightHandIndex3	0	0	0	0	0	0	1
RightHandIndex4	0	0	0	0	0	0	1
RightHandThumb1	0	0	0	0	0	0	1
RightHandThumb2	0	0	0	0	0	0	1
RightHandThumb3	0	0	0	0	0	0	1
RightHandThumb4	0	0	0	0	0	0	1
LeftUpLeg	0	0	0	0	0	0	1
LeftLeg	0	0	0	0	0	0	1
LeftFoot	0	0	0	0	0	0	1
LeftToeBase	0	0	0	0	0	0	1
RightUpLeg	0	0	0	0	0	0	1
RightLeg	0	0	0	0	0	0	1
RightFoot	0	0	0	0	0	0	1
RightToeBase	0	0	0	0	0	0	1
[Hips]
582	149.5243988	1003.831238	-145.55896	175.5730896	195.9332428	-544.9508057	1.0
583	159.2741547	996.276001	-151.9506226	173.0923767	199.0165558	-543.4734497	1.0
584	168.6240387	985.9060059	-154.1835175	170.3991241	202.4813995	-540.2116699	1.0
585	176.1474915	975.1413574	-152.1641083	168.1580811	204.8357239	-535.8209839	1.0
[Spine]
582	0	101.8159943	1.315000057	15.33351231	-21.49860001	-12.96733856	1.0
583	0	101.8159943	1.315000057	18.53554726	-18.032938	-13.57692051	1.0
584	0	101.8159943	1.315000057	19.56547356	-14.45127106	-14.2489481	1.0
585	0	101.8159943	1.315000057	18.27041245	-11.24473	-15.18955135	1.0
[Spine1]
582	0	100.8349991	-10.00800037	1.358319163	-3.373432636	3.556165934	1.0
583	0	100.8349991	-10.00800037	0.2277555466	-2.863773346	2.337977409	1.0
584	0	100.8349991	-10.00800037	-0.4990954399	-2.277343988	0.3919301033	1.0
585	0	100.8349991	-10.00800037	-0.7179368734	-1.730476022	-1.528723001	1.0
[Spine2]
582	0	91	-13.73399925	1.579293251	-3.282584429	3.543571711	1.0
583	0	91	-13.73399925	0.3734362125	-2.798496723	2.395649433	1.0
584	0	91	-13.73399925	-0.4365455806	-2.273432732	0.4758042395	1.0
585	0	91	-13.73399925	-0.7133345604	-1.792032242	-1.456508279	1.0
[Neck]
582	0	166.7169952	-25.16200066	-9.333109856	5.519986153	6.71531105	1.0
583	0	166.7169952	-25.16200066	-9.584921837	5.162661076	7.705347061	1.0
584	0	166.7169952	-25.16200066	-9.583222389	4.854995251	8.18424511	1.0
585	0	166.7169952	-25.16200066	-9.339377403	4.642751217	7.427035809	1.0
[Head]
582	0	96.17900085	16.84999847	-8.129454613	32.84571457	0.3646527827	1.0
583	0	96.17900085	16.84999847	-7.761104107	31.87955856	1.96895349	1.0
584	0	96.17900085	16.84999847	-8.159983635	30.73448944	4.298577785	1.0
585	0	96.17900085	16.84999847	-9.501355171	29.08315086	6.614952087	1.0
[LeftEye]
582	30.6760006	64.09500122	92.83599854	0	0	0	1.0
583	30.6760006	64.09500122	92.83599854	0	0	0	1.0
584	30.6760006	64.09500122	92.83599854	0	0	0	1.0
585	30.6760006	64.09500122	92.83599854	0	0	0	1.0
[RightEye]
582	-30.6760006	64.09500122	92.83499908	0	0	0	1.0
583	-30.6760006	64.09500122	92.83499908	0	0	0	1.0
584	-30.6760006	64.09500122	92.83499908	0	0	0	1.0
585	-30.6760006	64.09500122	92.83499908	0	0	0	1.0
[LeftShoulder]
582	45.70400238	109.4599991	-26.28000069	2.887717009	-17.64235306	-5.83947897	1.0
583	45.70400238	109.4599991	-26.28000069	3.220602989	-16.73571205	-8.379009247	1.0
584	45.70400238	109.4599991	-26.28000069	3.433860064	-14.46321583	-12.062006	1.0
585	45.70400238	109.4599991	-26.28000069	3.346193075	-11.14472961	-16.10186195	1.0
[LeftArm]
582	105.923996	-5.24600029	-22.32099915	0.9111292362	-47.20559311	-25.73317337	1.0
583	105.923996	-5.24600029	-22.32099915	10.89739037	-41.7424736	-27.76844215	1.0
584	105.923996	-5.24600029	-22.32099915	20.65457726	-35.24008942	-27.54724884	1.0
585	105.923996	-5.24600029	-22.32099915	27.96873665	-28.44636726	-27.02717972	1.0
[LeftForeArm]
582	278.414978	-0.0009999999311	0	-9.329163731e-06	-34.82027054	-0.0002123847662	1.0
583	278.414978	-0.0009999999311	0	-5.069317012e-06	-28.56604195	-0.0002139574935	1.0
584	278.414978	-0.0009999999311	0	3.119186431e-06	-23.74946785	-0.0002078414982	1.0
585	278.414978	-0.0009999999311	0	7.383153843e-06	-18.86559105	-0.000199740316	1.0
[LeftHand]
582	283.2879944	0	0	-30.80233383	-13.28556252	5.930139065	1.0
583	283.2879944	0	0	-38.40212631	-12.39926815	9.928599358	1.0
584	283.2879944	0	0	-46.97489548	-11.59244537	14.03594398	1.0
585	283.2879944	0	0	-54.20324326	-10.29663754	17.26951218	1.0
[LeftHandThumb1]
582	24.6609993	-15.75	26.8239994	3.346384048	-1.899894238	-15.08863926	1.0
583	24.6609993	-15.75	26.8239994	3.860225201	-1.23605144	-15.69898224	1.0
584	24.6609993	-15.75	26.8239994	4.001669884	-1.410830379	-16.77309799	1.0
585	24.6609993	-15.75	26.8239994	3.833508253	-2.262307167	-18.26962471	1.0
[LeftHandThumb2]
582	32.29800034	-18.64699936	18.64699936	11.73291111	23.63272285	7.85802412	1.0
583	32.29800034	-18.64699936	18.64699936	11.11884785	22.56378937	7.353735447	1.0
584	32.29800034	-18.64699936	18.64699936	11.50564861	23.21710396	7.671367168	1.0
585	32.29800034	-18.64699936	18.64699936	12.91300201	25.52145767	8.843896866	1.0
[LeftHandThumb3]
582	26.52600098	-15.31499958	15.31499958	0.1020847261	2.810814381	2.642621756	1.0
583	26.52600098	-15.31499958	15.31499958	-0.03096526675	2.552741766	2.605177402	1.0
584	26.52600098	-15.31499958	15.31499958	0.1172121093	2.825918198	2.647391319	1.0
585	26.52600098	-15.31499958	15.31499958	0.5425019264	3.605084896	2.77110815	1.0
[LeftHandThumb4]
582	19.54599953	-11.28499985	11.28499985	0	0	0	1.0
583	19.54599953	-11.28499985	11.28499985	0	0	0	1.0
584	19.54599953	-11.28499985	11.28499985	0	0	0	1.0
585	19.54599953	-11.28499985	11.28499985	0	0	0	1.0
[LeftHandIndex1]
582	91.09299469	-5.170999527	22.60099792	-0.9225078225	-4.614996433	-30.9924221	1.0
583	91.09299469	-5.170999527	22.60099792	-0.7982082963	-5.663262844	-29.17404938	1.0
584	91.09299469	-5.170999527	22.60099792	-0.7063358426	-7.21137619	-28.05228043	1.0
585	91.09299469	-5.170999527	22.60099792	-0.6452975273	-9.013408661	-27.63078499	1.0
[LeftHandIndex2]
582	36.76399994	0	0	0.0009554432472	0.004632374737	-0.03833712265	1.0
583	36.76399994	0	0	-0.003387825098	0.2507170737	-2.083928108	1.0
584	36.76399994	0	0	-0.04196273163	0.7258340716	-6.052015781	1.0
585	36.76399994	0	0	-0.1233061478	1.29852891	-10.86903763	1.0
[LeftHandIndex3]
582	28.83100128	0	0	-0.05220200866	0.8463732004	-7.058401585	1.0
583	28.83100128	0	0	-0.05415996537	0.862103045	-7.190269947	1.0
584	28.83100128	0	0	-0.05471748114	0.8665317893	-7.227410793	1.0
585	28.83100128	0	0	-0.05419598147	0.8623828292	-7.192641735	1.0
[LeftHandIndex4]
582	23.92700005	0	0	0	0	0	1.0
583	23.92700005	0	0	0	0	0	1.0
584	23.92700005	0	0	0	0	0	1.0
585	23.92700005	0	0	0	0	0	1.0
[LeftHandMiddle1]
582	95.33399963	0	0	-1.015675902	-0.03101847507	-31.69791603	1.0
583	95.33399963	0	0	-0.9378809333	-0.4951411486	-30.48195839	1.0
584	95.33399963	0	0	-0.8856591582	-0.9667130113	-29.66237831	1.0
585	95.33399963	0	0	-0.860442996	-1.358667493	-29.28231621	1.0
[LeftHandMiddle2]
582	36.98199844	0	0	-1.442127347	4.212471008	-37.78169632	1.0
583	36.98199844	0	0	-1.400686383	4.158983707	-37.21638107	1.0
584	36.98199844	0	0	-1.420445561	4.184374332	-37.4851532	1.0
585	36.98199844	0	0	-1.484143376	4.265989304	-38.35016632	1.0
[LeftHandMiddle3]
582	29.50900078	0	0	-0.06119138747	0.9160293341	-7.64274931	1.0
583	29.50900078	0	0	-0.062007498	0.9220536947	-7.693333149	1.0
584	29.50900078	0	0	-0.06271221489	0.9271866083	-7.736447334	1.0
585	29.50900078	0	0	-0.06329063326	0.9314248562	-7.772053242	1.0
[LeftHandMiddle4]
582	28.3390007	0	0	0	0	0	1.0
583	28.3390007	0	0	0	0	0	1.0
584	28.3390007	0	0	0	0	0	1.0
585	28.3390007	0	0	0	0	0	1.0
[LeftHandRing1]
582	91.04499817	-0.4390000105	-18.65100098	-1.318927169	3.057504177	-36.08364105	1.0
583	91.04499817	-0.4390000105	-18.65100098	-1.266808271	2.8820889	-35.3420105	1.0
584	91.04499817	-0.4390000105	-18.65100098	-1.229735613	2.658363104	-34.80981827	1.0
585	91.04499817	-0.4390000105	-18.65100098	-1.212134838	2.425835609	-34.55891037	1.0
[LeftHandRing2]
582	31.54000092	0	0	-3.045627117	5.703451633	-56.17560959	1.0
583	31.54000092	0	0	-2.976242781	5.656579971	-55.4745636	1.0
584	31.54000092	0	0	-2.929325581	5.6242342	-54.99749756	1.0
585	31.54000092	0	0	-2.904315948	5.606704712	-54.74184036	1.0
[LeftHandRing3]
582	29.37700081	0	0	-0.3233114481	2.085020304	-17.62733841	1.0
583	29.37700081	0	0	-0.3245127499	2.088776112	-17.66022301	1.0
584	29.37700081	0	0	-0.3253602684	2.091424227	-17.68341827	1.0
585	29.37700081	0	0	-0.3262657821	2.094271183	-17.7082901	1.0
[LeftHandRing4]
582	26.47500038	0	0	0	0	0	1.0
583	26.47500038	0	0	0	0	0	1.0
584	26.47500038	0	0	0	0	0	1.0
585	26.47500038	0	0	0	0	0	1.0
[LeftHandPinky1]
582	80.77799988	-4.887000084	-38.06099701	-2.372592449	4.41233778	-49.08868408	1.0
583	80.77799988	-4.887000084	-38.06099701	-2.31976223	4.407644272	-48.50168991	1.0
584	80.77799988	-4.887000084	-38.06099701	-2.27716279	4.440197468	-48.02466965	1.0
585	80.77799988	-4.887000084	-38.06099701	-2.255192757	4.51714325	-47.77724838	1.0
[LeftHandPinky2]
582	36	0	0	0.3969215453	3.327005863	-55.41864777	1.0
583	36	0	0	0.4290462434	3.256048441	-54.86094666	1.0
584	36	0	0	0.4981322587	3.095009327	-53.60665512	1.0
585	36	0	0	0.5914537907	2.862070322	-51.81088257	1.0
[LeftHandPinky3]
582	21.14200211	0	0	-0.08190512657	1.058995485	-8.844673157	1.0
583	21.14200211	0	0	-0.082721062	1.064220667	-8.888650894	1.0
584	21.14200211	0	0	-0.08415807784	1.073386669	-8.965874672	1.0
585	21.14200211	0	0	-0.08608278632	1.085529923	-9.068213463	1.0
[LeftHandPinky4]
582	19.75699997	0	0	0	0	0	1.0
583	19.75699997	0	0	0	0	0	1.0
584	19.75699997	0	0	0	0	0	1.0
585	19.75699997	0	0	0	0	0	1.0
[RightShoulder]
582	-45.70000076	109.4620056	-26.28000069	0.3761168122	-13.85798073	-13.82470417	1.0
583	-45.70000076	109.4620056	-26.28000069	0.01754591428	-11.3054266	-9.589372635	1.0
584	-45.70000076	109.4620056	-26.28000069	-0.1088704094	-8.083292961	-6.970092297	1.0
585	-45.70000076	109.4620056	-26.28000069	-0.03242058679	-4.804296017	-8.479117393	1.0
[RightArm]
582	-105.9280014	-5.248000145	-22.32099915	-50.13552856	10.82462883	-21.89684868	1.0
583	-105.9280014	-5.248000145	-22.32099915	-59.82521057	14.35195351	-24.80948448	1.0
584	-105.9280014	-5.248000145	-22.32099915	-70.5844574	19.12701225	-24.8262043	1.0
585	-105.9280014	-5.248000145	-22.32099915	-82.27838135	24.99776268	-19.56744957	1.0
[RightForeArm]
582	-278.414978	0	0	-5.114436135e-06	43.71432114	-9.640117241e-06	1.0
583	-278.414978	0	0	2.972907396e-06	46.4818306	-4.211521627e-06	1.0
584	-278.414978	0	0	1.377239369e-05	51.61592484	9.369536201e-06	1.0
585	-278.414978	0	0	9.593776667e-06	59.59088516	7.045358416e-06	1.0
[RightHand]
582	-283.2879944	0	0.0009999999311	10.29936886	-4.706537724	20.52351379	1.0
583	-283.2879944	0	0.0009999999311	-2.46118021	10.6190424	18.60580063	1.0
584	-283.2879944	0	0.0009999999311	-17.15834808	24.19293976	11.66273022	1.0
585	-283.2879944	0	0.0009999999311	-32.39745331	32.23280334	0.51656425	1.0
[RightHandPinky1]
582	-80.76699829	-4.885000229	-38.06000137	-5.334877968	-10.27891827	76.74226379	1.0
583	-80.76699829	-4.885000229	-38.06000137	-5.302554607	-10.21916866	76.46642303	1.0
584	-80.76699829	-4.885000229	-38.06000137	-5.266985416	-10.20429993	76.16319275	1.0
585	-80.76699829	-4.885000229	-38.06000137	-5.236265182	-10.26735401	75.90216827	1.0
[RightHandPinky2]
582	-36	0	0.0009999999311	-2.644556761	-5.447062969	51.78043365	1.0
583	-36	0	0.0009999999311	-2.645200729	-5.447607517	51.78741074	1.0
584	-36	0	0.0009999999311	-2.623372078	-5.43044138	51.55727386	1.0
585	-36	0	0.0009999999311	-2.571680784	-5.389058113	51.00841904	1.0
[RightHandPinky3]
582	-21.14200211	0	0	-0.04625018314	0.8007275462	-6.611144066	1.0
583	-21.14200211	0	0	-0.04616700113	0.8000342846	-6.605298519	1.0
584	-21.14200211	0	0	-0.0459103249	0.7977884412	-6.586655617	1.0
585	-21.14200211	0	0	-0.04545455799	0.7937983274	-6.553619862	1.0
[RightHandPinky4]
582	-19.75699997	0	0	0	0	0	1.0
583	-19.75699997	0	0	0	0	0	1.0
584	-19.75699997	0	0	0	0	0	1.0
585	-19.75699997	0	0	0	0	0	1.0
[RightHandRing1]
582	-91.03599548	-0.4390000105	-18.65100098	-4.109129429	-6.56919384	65.97407532	1.0
583	-91.03599548	-0.4390000105	-18.65100098	-4.085632324	-6.240378857	65.7605896	1.0
584	-91.03599548	-0.4390000105	-18.65100098	-4.055756569	-5.839794159	65.48976135	1.0
585	-91.03599548	-0.4390000105	-18.65100098	-4.020588875	-5.457810402	65.17092133	1.0
[RightHandRing2]
582	-31.54000092	0	0	-0.5846545696	-2.789899349	23.66739082	1.0
583	-31.54000092	0	0	-0.5737470984	-2.764927864	23.44250298	1.0
584	-31.54000092	0	0	-0.55350703	-2.717684984	23.01826096	1.0
585	-31.54000092	0	0	-0.5296860337	-2.661109686	22.5115242	1.0
[RightHandRing3]
582	-29.37700081	0	0	-0.1678376794	0.06684374064	-0.550511837	1.0
583	-29.37700081	0	0	-0.3445455134	0.09112256765	-0.7505356073	1.0
584	-29.37700081	0	0	-0.5734445453	0.1241107211	-1.022399068	1.0
585	-29.37700081	0	0	-0.769357264	0.1528021395	-1.258894086	1.0
[RightHandRing4]
582	-26.47500038	0	0	0	0	0	1.0
583	-26.47500038	0	0	0	0	0	1.0
584	-26.47500038	0	0	0	0	0	1.0
585	-26.47500038	0	0	0	0	0	1.0
[RightHandMiddle1]
582	-95.32500458	0	0	-4.127470493	-3.285063028	66.17608643	1.0
583	-95.32500458	0	0	-4.104883671	-2.612671137	65.98937225	1.0
584	-95.32500458	0	0	-4.067074776	-1.732504845	65.67631531	1.0
585	-95.32500458	0	0	-4.005517006	-0.8109379411	65.15388489	1.0
[RightHandMiddle2]
582	-36.98199844	0	0	-0.4007108808	-2.326019526	19.54818344	1.0
583	-36.98199844	0	0	-0.3802170157	-2.267407894	19.03595924	1.0
584	-36.98199844	0	0	-0.3520998061	-2.183900595	18.30902672	1.0
585	-36.98199844	0	0	-0.3296412528	-2.115597486	17.71589661	1.0
[RightHandMiddle3]
582	-29.50900078	0	0	-1.102907896	0.1025741547	-0.8611835837	1.0
583	-29.50900078	0	0	-1.384109259	0.1589832008	-1.325823665	1.0
584	-29.50900078	0	0	-1.760641336	0.2318817079	-1.926665306	1.0
585	-29.50900078	0	0	-2.108553648	0.2899478376	-2.405539989	1.0
[RightHandMiddle4]
582	-28.3390007	0	0.0009999999311	0	0	0	1.0
583	-28.3390007	0	0.0009999999311	0	0	0	1.0
584	-28.3390007	0	0.0009999999311	0	0	0	1.0
585	-28.3390007	0	0.0009999999311	0	0	0	1.0
[RightHandIndex1]
582	-91.08300018	-5.167999744	22.60099792	-5.208779812	0.2835292518	75.74855042	1.0
583	-91.08300018	-5.167999744	22.60099792	-5.183175087	1.443924427	75.57117462	1.0
584	-91.08300018	-5.167999744	22.60099792	-5.12626791	2.98985672	75.15641022	1.0
585	-91.08300018	-5.167999744	22.60099792	-5.014026642	4.639492989	74.2926712	1.0
[RightHandIndex2]
582	-36.76399994	0	0	-0.0009586920496	-0.1157325879	0.9534353018	1.0
583	-36.76399994	0	0	-0.0001883344812	-0.03416010737	0.2813317776	1.0
584	-36.76399994	0	0	4.830064063e-05	0.005794634111	-0.04781258106	1.0
585	-36.76399994	0	0	0.0002574698883	0.007654993795	-0.063097395	1.0
[RightHandIndex3]
582	-28.83100128	0	0	-0.02782701142	0.6218601465	-5.129643917	1.0
583	-28.83100128	0	0	-0.03555074334	0.7021382451	-5.793986797	1.0
584	-28.83100128	0	0	-0.04677643999	0.8040519357	-6.638747692	1.0
585	-28.83100128	0	0	-0.05656969175	0.8861677051	-7.320166111	1.0
[RightHandIndex4]
582	-23.92700005	0	0	0	0	0	1.0
583	-23.92700005	0	0	0	0	0	1.0
584	-23.92700005	0	0	0	0	0	1.0
585	-23.92700005	0	0	0	0	0	1.0
[RightHandThumb1]
582	-24.64799881	-15.72700024	26.82600021	6.01851511	-9.971856117	-1.270377874	1.0
583	-24.64799881	-15.72700024	26.82600021	5.943035603	-9.72840786	-1.276783824	1.0
584	-24.64799881	-15.72700024	26.82600021	5.672917843	-9.506233215	-1.376497507	1.0
585	-24.64799881	-15.72700024	26.82600021	5.225577354	-9.360323906	-1.587007165	1.0
[RightHandThumb2]
582	-32.29800034	-18.64699936	18.64699936	13.67517376	-32.31618881	-5.259553432	1.0
583	-32.29800034	-18.64699936	18.64699936	13.72802448	-32.30405045	-5.417987347	1.0
584	-32.29800034	-18.64699936	18.64699936	13.59699631	-31.93846512	-5.597524166	1.0
585	-32.29800034	-18.64699936	18.64699936	13.25197697	-31.17854309	-5.732699871	1.0
[RightHandThumb3]
582	-26.52600098	-15.31399918	15.31399918	17.47984505	-30.34300613	-13.41920471	1.0
583	-26.52600098	-15.31399918	15.31399918	17.02416992	-29.8502121	-13.21389294	1.0
584	-26.52600098	-15.31399918	15.31399918	15.71092796	-28.2967186	-12.26765251	1.0
585	-26.52600098	-15.31399918	15.31399918	13.75588036	-25.81888008	-10.77110291	1.0
[RightHandThumb4]
582	-19.54599953	-11.28499985	11.28499985	0	0	0	1.0
583	-19.54599953	-11.28499985	11.28499985	0	0	0	1.0
584	-19.54599953	-11.28499985	11.28499985	0	0	0	1.0
585	-19.54599953	-11.28499985	11.28499985	0	0	0	1.0
[LeftUpLeg]
582	82.07800293	-67.51699829	-15.99599934	-2.417330027	-5.736204624	4.080864429	1.0
583	82.07800293	-67.51699829	-15.99599934	-2.131977558	-5.164418221	1.561613917	1.0
584	82.07800293	-67.51699829	-15.99599934	-1.425787807	-5.132029057	-1.80989325	1.0
585	82.07800293	-67.51699829	-15.99599934	-1.281612277	-4.292705536	-5.510206223	1.0
[LeftLeg]
582	0	-443.7049866	2.845999956	30.26956367	5.527846336	-2.588933229	1.0
583	0	-443.7049866	2.845999956	32.65470886	0.8631276488	-2.887797594	1.0
584	0	-443.7049866	2.845999956	34.32060242	3.759735107	-2.994848967	1.0
585	0	-443.7049866	2.845999956	35.39782715	9.728814125	-2.40350771	1.0
[LeftFoot]
582	0	-444.2789917	-29.8219986	-20.50101852	6.532557487	0.9689244628	1.0
583	0	-444.2789917	-29.8219986	-22.09022331	7.646719933	1.16948998	1.0
584	0	-444.2789917	-29.8219986	-23.59449005	7.564582825	1.967476726	1.0
585	0	-444.2789917	-29.8219986	-24.60979652	4.864018917	3.373783112	1.0
[LeftToeBase]
582	0	-87.28699493	107.1060028	-4.322366714	6.597390438e-06	-1.142410895e-07	1.0
583	0	-87.28699493	107.1060028	-1.688580036	2.579722036e-07	7.823431929e-07	1.0
584	0	-87.28699493	107.1060028	-0.1052993387	-4.367062957e-06	6.449663488e-07	1.0
585	0	-87.28699493	107.1060028	0.03449307382	-6.599395306e-07	-1.177705826e-06	1.0
[RightUpLeg]
582	-82.07800293	-67.51699829	-15.99599934	-11.73725128	8.055775642	4.222652912	1.0
583	-82.07800293	-67.51699829	-15.99599934	-17.42836952	6.048028469	-0.2589297295	1.0
584	-82.07800293	-67.51699829	-15.99599934	-23.74684525	-0.2082934827	-4.948449135	1.0
585	-82.07800293	-67.51699829	-15.99599934	-28.67844963	-7.477536678	-9.392778397	1.0
[RightLeg]
582	0	-443.7049866	2.861999989	33.69658279	-11.79624653	-0.6045637131	1.0
583	0	-443.7049866	2.861999989	44.06721497	-12.06240368	1.034743547	1.0
584	0	-443.7049866	2.861999989	54.63328934	-10.81003284	-0.5626080036	1.0
585	0	-443.7049866	2.861999989	62.42284393	-10.00791836	-4.920351028	1.0
[RightFoot]
582	0	-444.2770081	-29.83799934	-10.73964882	12.53756237	1.372030973	1.0
583	0	-444.2770081	-29.83799934	0.4789613783	11.00623894	15.15642262	1.0
584	0	-444.2770081	-29.83799934	3.730544329	5.011147499	24.86904335	1.0
585	0	-444.2770081	-29.83799934	-3.493978977	-2.452780247	22.19387627	1.0
[RightToeBase]
582	0	-87.28699493	107.1060028	-5.17091608	0.1001049057	0.2200027108	1.0
583	0	-87.28699493	107.1060028	-15.99905777	-1.065126419	-3.475244284	1.0
584	0	-87.28699493	107.1060028	-13.52357769	-0.9989006519	-6.110398769	1.0
585	0	-87.28699493	107.1060028	0.6358319521	0.2167596221	-4.405532837	1.0
[EndOfFile]
